<?xml version="1.0" encoding="iso-8859-1"?>
<!-- Generator: Adobe Illustrator 19.0.0, SVG Export Plug-In . SVG Version: 6.00 Build 0)  -->
<svg version="1.1" id="Layer_1" xmlns="http://www.w3.org/2000/svg" xmlns:xlink="http://www.w3.org/1999/xlink" x="0px" y="0px"
	 viewBox="0 0 511.992 511.992" style="enable-background:new 0 0 511.992 511.992;" xml:space="preserve">
<g>
	<g>
		<g>
			<path d="M505.161,151.723c-75.136-69.611-169.152-48.235-219.861-21.952L252.83,97.302c-5.931-5.909-14.784-7.808-22.592-4.885
				c-7.829,2.944-13.227,10.197-13.781,18.56L205.47,275.904c-0.384,6.144,1.856,12.16,6.208,16.512
				c4.032,4.011,9.451,6.251,15.083,6.251c0.491,0,0.939-0.021,1.429-0.064l164.928-10.987c8.363-0.555,15.595-5.952,18.56-13.781
				c2.944-7.851,1.024-16.683-4.885-22.592l-28.565-28.565c22.72-20.011,67.584-52.672,103.403-35.968
				c9.557,4.48,20.885,1.259,26.731-7.424C514.227,170.539,512.862,158.848,505.161,151.723z"/>
			<path d="M460.16,224.764c-3.776,0-9.323,1.344-16.32,4.48c12.181,17.131,15.317,39.509,7.808,59.563
				c-8.875,23.509-30.741,39.723-55.723,41.365l-166.336,11.093l-2.816,0.064c-17.088,0-33.173-6.656-45.269-18.752
				c-12.992-12.971-19.797-30.997-18.624-49.408l11.008-165.035c1.664-25.003,17.899-46.827,41.344-55.637
				c7.211-2.731,14.784-4.117,22.485-4.117c17.067,0,33.131,6.656,45.227,18.709l11.925,11.904
				c23.403-8.725,54.869-16.875,90.88-16.875c29.419,0,57.515,5.739,83.584,16.576V42.663c0-11.776-9.557-21.333-21.333-21.333
				H21.333C9.536,21.329,0,30.887,0,42.663v426.667c0,11.776,9.536,21.333,21.333,21.333H448c11.776,0,21.333-9.557,21.333-21.333
				V227.324c-1.941-0.704-3.947-1.109-5.824-2.005C463.061,225.105,462.101,224.764,460.16,224.764z"/>
		</g>
	</g>
</g>
<g>
</g>
<g>
</g>
<g>
</g>
<g>
</g>
<g>
</g>
<g>
</g>
<g>
</g>
<g>
</g>
<g>
</g>
<g>
</g>
<g>
</g>
<g>
</g>
<g>
</g>
<g>
</g>
<g>
</g>
</svg>
