<svg xmlns="http://www.w3.org/2000/svg" xmlns:xlink="http://www.w3.org/1999/xlink" viewBox="0 0 500 500"><defs><clipPath id="freepik--clip-path--inject-10"><path d="M352.75,182.63c0,.82,0,1.66-.06,2.5-.92,24-14.91,50.94-32.46,62.62l-.47.31c-.62.4-1.24.79-1.87,1.15a30.18,30.18,0,0,1-10.94,4c-8.18,1.12-15-2.47-19.26-9.8-2.48-4.31-4.07-9.91-4.51-16.62-.09-1.26-.13-2.56-.13-3.9s0-2.47.11-3.72a71.84,71.84,0,0,1,.88-7.92c3.08-18.55,13-37.48,25.56-48.84a52.17,52.17,0,0,1,5.56-4.39c.9-.61,1.81-1.19,2.73-1.72s1.58-.87,2.34-1.25l.66-.3c5.22-2.43,10.1-3.13,14.41-2.3,7.33,1.41,13,7.26,15.69,16.6A49.09,49.09,0,0,1,352.75,182.63Z" style="fill:none"></path></clipPath></defs><g id="freepik--Shadow--inject-10"><path id="freepik--shadow--inject-10" d="M240.07,458.12,442.64,341.17c2.39-1.38,2.39-3.62,0-5l-166-95.85a9.57,9.57,0,0,0-8.66,0l-202.56,117c-2.4,1.38-2.4,3.62,0,5l166,95.85A9.57,9.57,0,0,0,240.07,458.12Z" style="fill:#e0e0e0"></path></g><g id="freepik--Device--inject-10"><g id="freepik--Laptop--inject-10"><path d="M82.3,359.19a10.94,10.94,0,0,0,5.1,8.47l143,82.54a11.27,11.27,0,0,0,10.21,0L436.19,337.26a9.58,9.58,0,0,0,0-16.94l-143-82.55a11.31,11.31,0,0,0-10.2,0L87.4,350.71A10.94,10.94,0,0,0,82.3,359.19Z" style="fill:#37474f"></path><path d="M235.47,440.38v11a10.32,10.32,0,0,1-5.1-1.22l-143-82.54A9.55,9.55,0,0,1,86.88,351c-2.29,1.64-2.11,4,.52,5.57l143,82.54A10.43,10.43,0,0,0,235.47,440.38Z" style="fill:#263238"></path><path d="M77.51,350.9a11,11,0,0,1-4.79-8.66V171.63a11.31,11.31,0,0,1,5.1-8.84L273.44,49.85a11,11,0,0,1,9.89-.18,11,11,0,0,1,4.79,8.66V228.94a11.28,11.28,0,0,1-5.1,8.83L87.4,350.71A11,11,0,0,1,77.51,350.9Z" style="fill:#455a64"></path><path d="M86.8,351a11,11,0,0,1-9.29-.13,10.93,10.93,0,0,1-4.78-8.65V171.63a10.28,10.28,0,0,1,1.49-5l9.57,5.51h0a10.5,10.5,0,0,0-1.5,5V347.77C82.29,350.79,84.26,352.14,86.8,351Z" style="fill:#263238"></path><path d="M82.3,177.16V347.77c0,3.25,2.28,4.57,5.1,2.94L283,237.77a11.28,11.28,0,0,0,5.1-8.83V58.33c0-3.26-2.29-4.57-5.1-2.95L87.4,168.32A11.27,11.27,0,0,0,82.3,177.16Z" style="fill:#37474f"></path><path d="M87.4,356.61l143,82.54a11.33,11.33,0,0,0,10.21,0L436.19,326.21c2.81-1.63,2.81-4.27,0-5.89l-143-82.55a11.31,11.31,0,0,0-10.2,0L87.4,350.71C84.58,352.34,84.58,355,87.4,356.61Z" style="fill:#455a64"></path><path d="M90.14,177.79,278.74,68.93c1.69-1,3.06-.19,3.06,1.77V218.39a6.77,6.77,0,0,1-3.06,5.3L90.14,332.55c-1.69,1-3.06.18-3.06-1.77V183.09A6.77,6.77,0,0,1,90.14,177.79Z" style="fill:#BA68C8"></path><path d="M90.14,177.79,278.74,68.93c1.69-1,3.06-.19,3.06,1.77V218.39a6.77,6.77,0,0,1-3.06,5.3L90.14,332.55c-1.69,1-3.06.18-3.06-1.77V183.09A6.77,6.77,0,0,1,90.14,177.79Z" style="fill:#fff;opacity:0.9"></path><path d="M104,352.19,285.57,247.36a5.59,5.59,0,0,1,5.1,0l9.29,5.36c1.41.81,1.41,2.13,0,2.94L118.36,360.48a5.68,5.68,0,0,1-5.11,0L104,355.13C102.58,354.32,102.58,353,104,352.19Z" style="fill:#37474f"></path><path d="M127.93,366,308.15,262a5.66,5.66,0,0,1,5.1,0l57.12,33c1.41.82,1.41,2.14,0,3l-180,103.88a5.68,5.68,0,0,1-5.11,0l-57.32-32.85C126.52,368.13,126.52,366.82,127.93,366Z" style="fill:#263238"></path><path d="M290.69,308.34l5.69-3.28c.24-.14.22-.38,0-.53l-6.57-3.79a1,1,0,0,0-.91,0L283.18,304c-.24.14-.23.37,0,.52l6.57,3.8A1,1,0,0,0,290.69,308.34Zm-11.22-13-5.68,3.28c-.24.14-.23.37,0,.52l6.57,3.8a1,1,0,0,0,.91,0l5.69-3.29c.24-.14.22-.37,0-.52l-6.57-3.8A1,1,0,0,0,279.47,295.3Zm-18.36,10.6-9.63,5.55c-.24.14-.22.38,0,.53l6.57,3.79a1,1,0,0,0,.91,0l9.62-5.55c.24-.14.23-.38,0-.53L262,305.92A1,1,0,0,0,261.11,305.9Zm10.05-5.81-5.68,3.29c-.24.13-.23.37,0,.52l6.57,3.79a1,1,0,0,0,.91,0l5.69-3.28c.24-.14.22-.37,0-.52l-6.57-3.8A1,1,0,0,0,271.16,300.09ZM248.86,313l-5.68,3.28c-.25.14-.23.38,0,.53l6.57,3.79a1,1,0,0,0,.91,0l5.68-3.28c.24-.14.23-.38,0-.53L249.77,313A1,1,0,0,0,248.86,313Zm-8.31,4.8-5.68,3.28c-.24.14-.23.37,0,.52l6.57,3.8a1,1,0,0,0,.91,0l5.68-3.29c.25-.14.23-.37,0-.52l-6.57-3.79A1,1,0,0,0,240.55,317.77Zm25.86,15.43,5.68-3.28c.25-.14.23-.38,0-.53l-6.57-3.79a1,1,0,0,0-.91,0l-5.68,3.28c-.24.14-.23.38,0,.53l6.57,3.79A1,1,0,0,0,266.41,333.2ZM258.1,338l5.69-3.28c.24-.14.22-.38,0-.53l-6.57-3.79a1,1,0,0,0-.91,0l-5.68,3.28c-.24.14-.23.37,0,.52l6.57,3.8A1,1,0,0,0,258.1,338Zm-8.31,4.8,5.69-3.29c.24-.14.22-.37,0-.52l-6.57-3.8a1,1,0,0,0-.91,0l-5.68,3.28c-.24.14-.23.37,0,.52l6.57,3.8A1,1,0,0,0,249.79,342.8Zm-8.31,4.79,5.69-3.28c.24-.14.22-.37,0-.52l-6.58-3.8a1,1,0,0,0-.91,0L234,343.25c-.24.14-.23.38,0,.53l6.58,3.79A1,1,0,0,0,241.48,347.59Zm40.9-34.46,5.69-3.28c.24-.14.22-.37,0-.52l-6.58-3.8a1,1,0,0,0-.9,0l-5.69,3.29c-.24.14-.23.37,0,.52l6.58,3.8A1,1,0,0,0,282.38,313.13Zm-7.66,15.27,12.68-7.32c.24-.14.23-.37,0-.52l-16-9.22a1,1,0,0,0-.9,0l-6.56,3.79c-.24.14-.23.37,0,.52l8.45,4.88c.26.15.27.39,0,.53l-5.24,3c-.25.14-.23.37,0,.52l6.57,3.79A1,1,0,0,0,274.72,328.4Zm-42.48-5.84-5.68,3.29c-.24.14-.23.37,0,.52l6.57,3.8a1,1,0,0,0,.91,0l5.69-3.28c.24-.14.22-.37,0-.52l-6.57-3.8A1,1,0,0,0,232.24,322.56Zm-8.31,4.8-5.68,3.28c-.24.14-.23.38,0,.53l6.57,3.79a1,1,0,0,0,.91,0l5.69-3.28c.24-.14.22-.38,0-.52l-6.57-3.8A1,1,0,0,0,223.93,327.36Zm-41.52,53.79a1,1,0,0,0,.91,0l5.69-3.28c.24-.14.22-.37,0-.52l-6.57-3.8a1,1,0,0,0-.91,0l-5.68,3.28c-.24.14-.23.38,0,.53Zm-24.95-15.41L151.78,369c-.24.14-.23.37,0,.52l6.57,3.8a1,1,0,0,0,.91,0l5.68-3.28c.25-.14.23-.38,0-.53l-6.57-3.79A1,1,0,0,0,157.46,365.74ZM170.84,377a1,1,0,0,0,.9,0l5.69-3.28c.24-.14.22-.37,0-.52l-6.57-3.8a1,1,0,0,0-.91,0l-5.68,3.29c-.24.14-.23.37,0,.52Zm26.24,7.08,5.69-3.28c.24-.14.23-.38,0-.53l-6.58-3.79a1,1,0,0,0-.9,0l-5.69,3.28c-.24.14-.23.38,0,.53l6.58,3.79A1,1,0,0,0,197.08,384.07Zm-9.21,4.78a1,1,0,0,0,.9,0l5.69-3.29c.24-.14.23-.37,0-.52l-6.58-3.79a1,1,0,0,0-.9,0l-5.69,3.28c-.24.14-.23.37,0,.52Zm-22.1-27.91-5.68,3.28c-.25.14-.23.38,0,.53l6.57,3.79a1,1,0,0,0,.91,0l5.68-3.28c.25-.14.23-.37,0-.52l-6.57-3.8A1,1,0,0,0,165.77,360.94Zm41.55-24-5.69,3.28c-.24.14-.23.37,0,.52l6.58,3.8a1,1,0,0,0,.9,0l5.69-3.29c.24-.14.23-.37,0-.52l-6.58-3.8A1,1,0,0,0,207.32,337Zm-33.24,19.18-5.69,3.29c-.24.14-.22.37,0,.52l6.57,3.8a1,1,0,0,0,.91,0l5.68-3.28c.24-.14.23-.37,0-.52l-6.57-3.8A1,1,0,0,0,174.08,356.14Zm41.54-24-5.68,3.28c-.24.14-.23.37,0,.52l6.58,3.8a1,1,0,0,0,.9,0l5.69-3.28c.24-.14.22-.38,0-.53l-6.58-3.79A1,1,0,0,0,215.62,332.16ZM199,341.75,193.32,345c-.24.14-.23.38,0,.53l6.58,3.79a1,1,0,0,0,.91,0l5.68-3.28c.24-.14.23-.37,0-.52l-6.58-3.8A1,1,0,0,0,199,341.75Zm-8.31,4.8L185,349.83c-.24.14-.22.38,0,.53l6.57,3.79a1,1,0,0,0,.91,0l5.68-3.28c.24-.14.23-.38,0-.53l-6.57-3.79A1,1,0,0,0,190.7,346.55Zm-8.31,4.8-5.69,3.28c-.24.14-.22.37,0,.52l6.57,3.8a1,1,0,0,0,.91,0l5.68-3.29c.24-.13.23-.37,0-.52l-6.57-3.79A1,1,0,0,0,182.39,351.35Zm42.47,5.84,5.69-3.29c.24-.13.23-.37,0-.52l-6.58-3.79a1,1,0,0,0-.9,0l-5.69,3.28c-.24.14-.23.37,0,.52l6.58,3.8A1,1,0,0,0,224.86,357.19Zm73-72.5L292.16,288c-.25.14-.23.38,0,.53l6.57,3.79a1,1,0,0,0,.91,0l5.68-3.28c.24-.14.23-.37,0-.52l-6.57-3.8A1,1,0,0,0,297.84,284.69Zm-10.06,5.81-5.68,3.28c-.25.14-.23.37,0,.52l6.57,3.8a1,1,0,0,0,.91,0l5.68-3.28c.25-.14.23-.38,0-.53l-6.57-3.79A1,1,0,0,0,287.78,290.5Zm18.37-10.61-5.69,3.29c-.24.14-.22.37,0,.52l6.57,3.8a1,1,0,0,0,.91,0l5.68-3.28c.24-.14.23-.37,0-.52l-6.57-3.8A1,1,0,0,0,306.15,279.89Zm-43,44.35,5.69-3.28c.24-.14.22-.37,0-.52l-6.57-3.8a1,1,0,0,0-.91,0l-5.68,3.29c-.24.14-.23.37,0,.52l6.57,3.8A1,1,0,0,0,263.14,324.24Zm52.22-49.12a1,1,0,0,0-.9,0l-5.69,3.28c-.24.14-.22.37,0,.52l6.57,3.8a1,1,0,0,0,.91,0l5.68-3.29c.24-.14.23-.37,0-.52Zm-82.19,77.27,5.69-3.28c.24-.14.23-.38,0-.53l-6.58-3.79a1,1,0,0,0-.9,0l-5.69,3.28c-.24.14-.23.38,0,.52l6.58,3.8A1,1,0,0,0,233.17,352.39Zm101.9-58.83,5.68-3.28c.24-.14.23-.38,0-.53L334.15,286a1,1,0,0,0-.91,0l-5.69,3.28c-.24.14-.22.38,0,.53l6.57,3.79A1,1,0,0,0,335.07,293.56Zm-17.7-.62,5.68-3.29c.24-.14.23-.37,0-.52l-6.57-3.8a1,1,0,0,0-.91,0l-5.68,3.28c-.25.14-.23.37,0,.52l6.57,3.8A1,1,0,0,0,317.37,292.94Zm7.39-12.4a1,1,0,0,0-.91,0l-5.69,3.28c-.24.14-.22.38,0,.52l6.57,3.8a1,1,0,0,0,.91,0l5.68-3.28c.24-.14.23-.38,0-.53Zm1.75-1,16,9.21a1,1,0,0,0,.91,0l5.68-3.28c.24-.14.23-.37,0-.52l-16-9.22a1,1,0,0,0-.9,0L326.47,279C326.23,279.14,326.25,279.38,326.51,279.53Zm-19.28,10.58-5.68,3.29c-.25.13-.23.37,0,.52l6.57,3.79a1,1,0,0,0,.91,0l5.68-3.28c.25-.14.23-.37,0-.52l-6.57-3.8A1,1,0,0,0,307.23,290.11ZM244.7,326.22,239,329.5c-.24.14-.23.37,0,.52l6.58,3.8a1,1,0,0,0,.9,0l5.69-3.28c.24-.14.22-.38,0-.53l-6.58-3.79A1,1,0,0,0,244.7,326.22Zm81.15-27.88a1,1,0,0,0,.91,0l5.68-3.28c.25-.14.23-.38,0-.53l-6.57-3.79a1,1,0,0,0-.91,0L319.25,294c-.25.14-.23.37,0,.52ZM253,321.42l-5.68,3.28c-.24.14-.23.38,0,.53l6.58,3.79a1,1,0,0,0,.9,0l5.69-3.28c.24-.14.22-.38,0-.52l-6.57-3.8A1,1,0,0,0,253,321.42Zm-62.28,54.94a1,1,0,0,0,.91,0l5.68-3.29c.25-.14.23-.37,0-.52l-6.57-3.8a1,1,0,0,0-.91,0L184.12,372c-.25.14-.23.37,0,.52Zm-12.5-11.76-5.68,3.28c-.24.14-.23.37,0,.52l6.57,3.8a1,1,0,0,0,.91,0l5.69-3.29c.24-.14.22-.37,0-.52l-6.57-3.8A1,1,0,0,0,178.22,364.6Zm21.72,7,5.68-3.28c.24-.14.23-.38,0-.53L199,364a1,1,0,0,0-.91,0l-5.69,3.28c-.24.14-.22.37,0,.52l6.57,3.8A1,1,0,0,0,199.94,371.58Zm8.31-4.8,5.68-3.28c.24-.14.23-.38,0-.52l-6.57-3.8a1,1,0,0,0-.91,0l-5.69,3.28c-.24.14-.22.38,0,.53l6.57,3.79A1,1,0,0,0,208.25,366.78Zm8.31-4.8,5.68-3.28c.24-.14.23-.37,0-.52l-6.58-3.8a1,1,0,0,0-.9,0L209,357.65c-.24.14-.22.37,0,.52l6.57,3.79A1,1,0,0,0,216.56,362Zm-30-2.18-5.68,3.28c-.24.14-.23.37,0,.52l6.57,3.8a1,1,0,0,0,.91,0l5.69-3.28c.24-.14.22-.38,0-.53l-6.57-3.79A1,1,0,0,0,186.53,359.8Zm8.31-4.8-5.68,3.28c-.25.14-.23.38,0,.53l6.57,3.79a1,1,0,0,0,.91,0l5.68-3.28c.25-.14.23-.37,0-.52l-6.57-3.8A1,1,0,0,0,194.84,355Zm33.24-19.19-5.69,3.28c-.24.14-.23.38,0,.53l6.58,3.79a1,1,0,0,0,.9,0l5.69-3.28c.24-.14.23-.37,0-.52l-6.58-3.8A1,1,0,0,0,228.08,335.81Zm-8.31,4.8-5.69,3.28c-.24.14-.22.38,0,.53l6.57,3.79a1,1,0,0,0,.91,0l5.68-3.28c.24-.14.23-.38,0-.53l-6.58-3.79A1,1,0,0,0,219.77,340.61ZM236.39,331l-5.69,3.28c-.24.14-.23.37,0,.52l6.58,3.8a1,1,0,0,0,.9,0l5.69-3.29c.24-.14.23-.37,0-.52l-6.58-3.8A1,1,0,0,0,236.39,331ZM203.15,350.2l-5.68,3.29c-.25.14-.23.37,0,.52l6.57,3.8a1,1,0,0,0,.91,0l5.68-3.28c.24-.14.23-.37,0-.52l-6.57-3.8A1,1,0,0,0,203.15,350.2Zm8.31-4.79-5.69,3.28c-.24.14-.22.37,0,.52l6.57,3.8a1,1,0,0,0,.91,0l5.68-3.29c.24-.13.23-.37,0-.52l-6.57-3.79A1,1,0,0,0,211.46,345.41Zm-6.07,33.86,5.69-3.28c.24-.14.22-.37,0-.52l-6.58-3.8a1,1,0,0,0-.9,0l-5.69,3.28c-.24.14-.23.38,0,.53l6.58,3.79A1,1,0,0,0,205.39,379.27Zm-48.76-4.92-6.57-3.8a1,1,0,0,0-.91,0l-5.68,3.28c-.24.14-.23.37,0,.52l6.57,3.8a1,1,0,0,0,.91,0l5.69-3.29C156.91,374.73,156.89,374.5,156.63,374.35ZM169.09,378l-6.58-3.79a1,1,0,0,0-.9,0l-8.75,5.05c-.24.14-.23.37,0,.52l6.58,3.8a1,1,0,0,0,.9,0l8.75-5.05C169.36,378.39,169.35,378.15,169.09,378Zm-22.54-11L140,363.22a1,1,0,0,0-.9,0l-7,4c-.24.14-.23.37,0,.52l6.58,3.8a1,1,0,0,0,.9,0l7-4C146.82,367.4,146.81,367.16,146.55,367Zm5.36-3.1a1,1,0,0,0,.91,0l5.68-3.28c.25-.14.23-.37,0-.52l-6.57-3.8a1,1,0,0,0-.91,0l-5.68,3.29c-.25.14-.23.37,0,.52Zm28.75,18.25-6.57-3.79a1,1,0,0,0-.91,0l-10.93,6.31c-.24.14-.23.38,0,.53l6.58,3.79a1,1,0,0,0,.9,0l10.94-6.31C180.94,382.55,180.92,382.31,180.66,382.16Zm5.46,7.7-6.58-3.8a1,1,0,0,0-.9,0l-7,4c-.24.14-.23.38,0,.53l6.58,3.79a1,1,0,0,0,.9,0l7-4C186.39,390.24,186.38,390,186.12,389.86Zm27.57-61.61a1,1,0,0,0,.91,0l5.68-3.29c.24-.14.23-.37,0-.52l-6.57-3.8a1,1,0,0,0-.91,0l-5.69,3.28c-.24.14-.22.37,0,.52Zm-16.62,9.59a1,1,0,0,0,.91,0l5.68-3.28c.25-.14.23-.38,0-.53l-6.57-3.79a1,1,0,0,0-.91,0l-5.68,3.28c-.25.14-.23.38,0,.53Zm-36.85,21.28a1,1,0,0,0,.91,0l5.68-3.29c.24-.14.23-.37,0-.52l-6.57-3.8a1,1,0,0,0-.91,0l-5.69,3.28c-.24.14-.22.37,0,.52ZM205.38,333a1,1,0,0,0,.91,0l5.68-3.28c.24-.14.23-.37,0-.52l-6.57-3.8a1,1,0,0,0-.91,0l-5.68,3.29c-.25.13-.23.37,0,.52Zm-16.62,9.6a1,1,0,0,0,.91,0l5.69-3.28c.24-.14.22-.38,0-.53l-6.57-3.79a1,1,0,0,0-.91,0l-5.68,3.28c-.24.14-.23.37,0,.52Zm1.93,47.84a1,1,0,0,0-.91,0L181,395.51c-.24.14-.22.37,0,.52l6.58,3.79a1,1,0,0,0,.91,0l8.74-5c.24-.14.23-.37,0-.52Zm-13.85-41a1,1,0,0,0,.91,0l5.68-3.28c.24-.14.23-.37,0-.52l-6.57-3.8a1,1,0,0,0-.91,0l-5.69,3.28c-.24.14-.22.38,0,.53Zm-8.31,4.8a1,1,0,0,0,.91,0l5.68-3.28c.24-.14.23-.38,0-.53l-6.57-3.79a1,1,0,0,0-.91,0L161.92,350c-.24.14-.22.38,0,.52ZM344.62,301.6a1,1,0,0,0-.91,0l-14,8.08c-.24.14-.23.38,0,.53l6.58,3.79a1,1,0,0,0,.9,0l14-8.08c.24-.14.22-.37,0-.52Zm-18.37,10.6a1,1,0,0,0-.9,0l-5.69,3.28c-.24.14-.23.37,0,.52l6.58,3.8a1,1,0,0,0,.9,0l5.69-3.29c.24-.14.23-.37,0-.52ZM213.7,374.48l5.69-3.29c.24-.14.22-.37,0-.52l-6.57-3.8a1,1,0,0,0-.91,0l-5.68,3.28c-.24.14-.23.37,0,.52l6.58,3.8A1,1,0,0,0,213.7,374.48Zm95.94-52.68a1,1,0,0,0-.91,0L303,325.06c-.24.14-.22.38,0,.53l6.57,3.79a1,1,0,0,0,.91,0l5.68-3.28c.24-.14.23-.38,0-.53Zm43.29-25a1,1,0,0,0-.91,0l-5.68,3.29c-.24.14-.23.37,0,.52l6.57,3.8a1,1,0,0,0,.91,0l5.69-3.28c.24-.14.22-.37,0-.52Zm14.88-1-16-9.22a1,1,0,0,0-.91,0l-5.68,3.28c-.25.14-.23.37,0,.52l16,9.22a1,1,0,0,0,.91,0l5.68-3.29C368.09,296.19,368.07,296,367.81,295.8Zm-89.22,43.93a1,1,0,0,0-.91,0l-7,4c-.24.14-.23.37,0,.52l6.58,3.8a1,1,0,0,0,.9,0l7-4c.24-.13.23-.37,0-.52Zm21-12.12a1,1,0,0,0-.91,0l-8.75,5.05c-.24.14-.22.37,0,.52l6.57,3.8a1,1,0,0,0,.91,0l8.74-5c.24-.14.23-.38,0-.53Zm-40.24,23.22a1,1,0,0,0-.9,0l-46.8,27c-.24.14-.22.38,0,.53l6.57,3.79a1,1,0,0,0,.91,0l46.79-27c.24-.14.23-.37,0-.52Zm-49.41,28.54a1,1,0,0,0-.91,0l-7,4c-.24.14-.22.37,0,.52l6.57,3.8a1,1,0,0,0,.91,0l7-4c.24-.14.23-.37,0-.52Zm59-34.09a1,1,0,0,0-.9,0l-7,4c-.24.14-.23.38,0,.52l6.58,3.8a1,1,0,0,0,.9,0l7-4c.24-.14.23-.37,0-.52Zm-68.65,39.64a1,1,0,0,0-.91,0l-7,4c-.24.14-.22.38,0,.52l6.58,3.8a1,1,0,0,0,.91,0l7-4c.24-.14.23-.37,0-.52Zm87.9-50.75a1,1,0,0,0-.91,0l-7,4c-.24.14-.22.38,0,.53l6.58,3.79a1,1,0,0,0,.91,0l7-4c.24-.14.23-.37,0-.52ZM317.94,317a1,1,0,0,0-.9,0l-5.69,3.29c-.24.13-.22.37,0,.52l6.58,3.79a1,1,0,0,0,.9,0l5.69-3.28c.24-.14.23-.37,0-.52Zm18.21-13.22,5.68-3.28c.25-.14.23-.38,0-.53l-6.57-3.79a1,1,0,0,0-.91,0l-5.68,3.28c-.24.14-.23.38,0,.53l6.57,3.79A1,1,0,0,0,336.15,303.78ZM299,303.54l5.69-3.28c.24-.14.22-.38,0-.53l-6.57-3.79a1,1,0,0,0-.91,0l-5.68,3.28c-.24.14-.23.38,0,.53l6.57,3.79A1,1,0,0,0,299,303.54ZM280.17,336.1l16.62-9.6c.24-.14.23-.37,0-.52l-6.57-3.8a1,1,0,0,0-.91,0l-16.62,9.59c-.24.14-.23.37,0,.52l6.58,3.8A1,1,0,0,0,280.17,336.1Zm46.76-27.54a1,1,0,0,0,.91,0l5.69-3.29c.24-.13.22-.37,0-.52L326.92,301a1,1,0,0,0-.91,0l-5.68,3.28c-.24.14-.23.37,0,.52Zm-8.48-5.4,5.69-3.29c.24-.14.22-.37,0-.52l-6.57-3.8a1,1,0,0,0-.91,0l-5.68,3.29c-.24.14-.23.37,0,.52l6.57,3.8A1,1,0,0,0,318.45,303.16ZM271.86,340.9l5.69-3.29c.24-.14.23-.37,0-.52l-6.58-3.8a1,1,0,0,0-.9,0l-5.69,3.29c-.24.14-.23.37,0,.52l6.58,3.8A1,1,0,0,0,271.86,340.9Zm36.71-21.74a1,1,0,0,0,.9,0l5.69-3.28c.24-.14.23-.38,0-.52l-6.58-3.8a1,1,0,0,0-.9,0L302,314.84c-.24.14-.23.38,0,.53Zm-78.25,45.72L236,361.6c.24-.14.22-.38,0-.53l-6.57-3.79a1,1,0,0,0-.91,0l-5.68,3.28c-.24.14-.23.38,0,.53l6.57,3.79A1,1,0,0,0,230.32,364.88Zm8.31-4.8,5.68-3.28c.25-.14.23-.37,0-.52l-6.57-3.8a1,1,0,0,0-.91,0l-5.68,3.29c-.25.14-.23.37,0,.52l6.57,3.79A1,1,0,0,0,238.63,360.08ZM222,369.68l5.69-3.28c.24-.14.22-.38,0-.53l-6.57-3.79a1,1,0,0,0-.91,0l-5.68,3.28c-.24.14-.23.37,0,.52l6.57,3.8A1,1,0,0,0,222,369.68Zm33.24-19.19,5.68-3.28c.24-.14.23-.38,0-.53l-6.57-3.79a1,1,0,0,0-.91,0l-5.69,3.28c-.24.14-.22.38,0,.52l6.57,3.8A1,1,0,0,0,255.25,350.49Zm-8.31,4.8,5.68-3.29c.24-.14.23-.37,0-.52L246,347.69a1,1,0,0,0-.91,0L239.42,351c-.24.14-.22.37,0,.52l6.57,3.8A1,1,0,0,0,246.94,355.29Zm16.62-9.6,5.68-3.28c.24-.14.23-.37,0-.52l-6.58-3.8a1,1,0,0,0-.9,0L256,341.35c-.24.14-.22.38,0,.53l6.57,3.79A1,1,0,0,0,263.56,345.69Zm38-71a1,1,0,0,0,.91,0l5.68-3.28c.24-.14.23-.37,0-.52l-1.75-1a1,1,0,0,0-.91,0l-5.68,3.28c-.24.14-.23.37,0,.52Zm-40.88,26.38a1,1,0,0,0,.9,0l5.69-3.28c.24-.14.23-.37,0-.52l-6.58-3.8a1,1,0,0,0-.9,0l-5.69,3.28c-.24.14-.23.38,0,.53Zm16.62-9.59a1,1,0,0,0,.9,0l5.69-3.28c.24-.14.22-.38,0-.53l-6.57-3.79a1,1,0,0,0-.91,0l-5.68,3.28c-.24.14-.23.37,0,.52ZM250.54,307a1,1,0,0,0,.91,0l5.68-3.28c.24-.14.23-.38,0-.53l-6.57-3.79a1,1,0,0,0-.91,0l-5.68,3.28c-.25.14-.23.38,0,.53ZM269,296.32a1,1,0,0,0,.9,0l5.69-3.29c.24-.14.23-.37,0-.52l-6.58-3.8a1,1,0,0,0-.9,0L262.39,292c-.24.14-.23.37,0,.52Zm-35.08,20.25a1,1,0,0,0,.91,0l5.69-3.28c.24-.14.22-.37,0-.52l-6.57-3.8a1,1,0,0,0-.91,0l-5.68,3.29c-.24.14-.23.37,0,.52Zm8.31-4.8a1,1,0,0,0,.91,0l5.68-3.29c.25-.13.23-.37,0-.52l-6.57-3.79a1,1,0,0,0-.91,0l-5.68,3.28c-.25.14-.23.37,0,.52ZM285,284.32a1,1,0,0,0,.91,0l5.68-3.28c.24-.14.23-.38,0-.53l-1.75-1a1,1,0,0,0-.91,0l-5.68,3.29c-.24.14-.23.37,0,.52Zm24.93-14.39a1,1,0,0,0,.91,0l5.68-3.29c.24-.14.23-.37,0-.52l-1.75-1a1,1,0,0,0-.91,0l-5.68,3.28c-.25.14-.23.38,0,.53Zm13.81,8a1,1,0,0,0,.9,0l5.69-3.28c.24-.14.23-.38,0-.53l-6.58-3.79a1,1,0,0,0-.9,0l-5.69,3.28c-.24.14-.23.38,0,.53ZM344.46,299l5.68-3.28c.25-.14.23-.37,0-.52l-6.57-3.8a1,1,0,0,0-.91,0L337,294.64c-.25.14-.23.38,0,.53l6.57,3.79A1,1,0,0,0,344.46,299Zm-51.2-19.46a1,1,0,0,0,.91,0l5.68-3.28c.24-.14.23-.38,0-.53l-1.75-1a1,1,0,0,0-.91,0L291.48,278c-.24.14-.23.37,0,.52Zm-67.65,41.84a1,1,0,0,0,.91,0l5.69-3.28c.24-.14.22-.37,0-.52l-6.57-3.8a1,1,0,0,0-.91,0L219,317c-.24.14-.23.38,0,.53Z" style="fill:#455a64"></path><path d="M262.46,371.24l56.1-32.39a6.76,6.76,0,0,1,6.13,0l32.17,18.57c1.69,1,1.69,2.56,0,3.53l-56.11,32.4a6.8,6.8,0,0,1-6.12,0l-32.17-18.58C260.77,373.8,260.77,372.21,262.46,371.24Z" style="fill:#263238"></path></g></g><g id="freepik--Hand--inject-10"><path d="M231.2,199.19,240,183.87l-32.89-19.1,0,0,0,0h0c-5.51-3.15-13.11-2.68-21.5,2.17C168.67,176.62,155,200.26,155,219.71c0,9.74,3.42,16.58,9,19.75h0l33.16,19.25,9-15.74C219.05,233,229.21,215.31,231.2,199.19Z" style="fill:#455a64"></path><path d="M218.61,186.12c-16.84,9.72-30.49,33.36-30.49,52.81s13.65,27.32,30.49,17.6,30.49-33.37,30.49-52.81S235.45,176.39,218.61,186.12Z" style="fill:#263238"></path><path d="M249.59,209l8.3-14.52L241.47,185l0,0,0,0h0c-5.22-3-12.43-2.55-20.38,2.05-16,9.21-28.89,31.61-28.89,50,0,9.23,3.25,15.71,8.49,18.72h0l16.68,9.63,8.53-14.92C238.07,241.1,247.7,224.3,249.59,209Z" style="fill:#f5f5f5"></path><path d="M193.06,228.17a46,46,0,0,0-.92,8.92c0,9.23,3.25,15.71,8.49,18.72h0l16.68,9.63,8.53-14.92c.83-.63,1.64-1.31,2.45-2Z" style="fill:#ebebeb"></path><path d="M237.65,196.64c-16,9.22-28.89,31.62-28.89,50.05s12.94,25.89,28.89,16.68,28.9-31.62,28.9-50S253.61,187.43,237.65,196.64Z" style="fill:#e0e0e0"></path><path d="M379.6,311.59c-3.51,2.59-11.32.53-11.81.41.38.16,6.46,3,8,9.08.56,2.29-1.23,5-2.86,6.11-5.39,3.69-13.35-.12-17.66-2.46a16.28,16.28,0,0,1,3.91,6c.78,2.58.32,5.42-1.72,6.75-4.39,2.86-10.42,3.09-29.95-8.62a7.5,7.5,0,0,1,1.35,3.52,1.62,1.62,0,0,1,0,.31,3.89,3.89,0,0,1-.41,1.77,3.83,3.83,0,0,1-.59.85,6.45,6.45,0,0,1-2.7,1.67c-6.62,2.41-24.33-9-36.34-16.51s-29-19.64-37.39-27.41c-12.3-11.37-10.4-16.75-22.28-26.22a100,100,0,0,0-11.23-7.63c-.35-.16-4.67-2.84-8.33-5.14a31.54,31.54,0,0,1-.81-7.36,36,36,0,0,1,.24-4.24c1.74-17.49,13.9-37.29,28.65-45.8a31.28,31.28,0,0,1,7.74-3.26c3.87,2.45,9.28,5.87,9.64,6.11a58,58,0,0,0,10.58,5.92c1.8.75,3.55,1.37,5.36,1.94,5.37,1.7,23.17,5.81,33.31,9.56s19.48,8,23.38,10.49S342.18,243,349.4,248.46s8,9.8,1.74,11-15.36.89-23-4.8-10.07-7.67-12.69-7.49,3.14,5.23,6.6,8.45a65.58,65.58,0,0,1,6.3,7.21A53.92,53.92,0,0,0,334,269c4.06,3.79,10.93,9.85,17.41,13.84,10.06,6.2,21.73,12.7,26,16.66S383.23,308.92,379.6,311.59Z" style="fill:#ffa8a7"></path><path d="M378.37,308.52c-2.44,1.41-5.81.89-11.33-1.08s-18.84-8.9-23.7-11.71c-2.77-1.59-13.55-7.89-22.32-13a.52.52,0,0,0-.56.88c7.69,5.27,17.12,11.67,21.31,14.25,9.38,5.78,17.15,9.6,26,14.15,0,0,8.2,2.27,11.83-.4,2.34-1.73,2.5-4.62,1.18-7.52A5.43,5.43,0,0,1,378.37,308.52Z" style="fill:#f28f8f"></path><path d="M371.74,325.13c-4.48,1.28-12-2.58-15-4.12s-23.81-12.71-27.29-14.8l-20-12a1,1,0,0,0-1.13,1.76c10.27,7,22.65,13.87,28.62,17.18a155.1,155.1,0,0,1,18.26,11.59c4.31,2.34,12.27,6.16,17.66,2.46,1.64-1.11,3.42-3.82,2.86-6.11C375.75,321.08,375.67,324,371.74,325.13Z" style="fill:#f28f8f"></path><path d="M357.42,337.46c1.84-1.2,2.39-3.64,1.9-6a4,4,0,0,1-3.55,3.85c-3.53.56-6.72-.26-11-1.77s-17.56-9.89-21.82-12.23c-2.66-1.46-18.14-11.16-29.41-18.25-.69-.44-.82.52-.14,1,8.36,5.53,12.92,8.86,16.71,11.52,7.06,4.95,13.88,9.3,17.33,13.28C347,340.55,353,340.32,357.42,337.46Z" style="fill:#f28f8f"></path><path d="M328.84,332.67a3.89,3.89,0,0,1-.41,1.77,3.83,3.83,0,0,1-.59.85,6.45,6.45,0,0,1-2.7,1.67c-6.62,2.41-24.33-9-36.34-16.51s-29-19.64-37.39-27.41c-12.3-11.37-10.4-16.75-22.28-26.22a100,100,0,0,0-11.23-7.63c-.35-.16-4.67-2.84-8.33-5.14a31.54,31.54,0,0,1-.81-7.36,36,36,0,0,1,.24-4.24c11.46,7.1,25.42,15,29.93,19.4.16.16.31.3.45.45,5.83,5.81,8,11.78,12,21.14,4.16,9.6,20.78,19.78,37.4,31.49s27.91,18.29,33.25,19.83a9,9,0,0,0,2.56.4,4,4,0,0,0,4.21-2.8,0,0,0,0,0,0,0C328.84,332.44,328.84,332.56,328.84,332.67Z" style="fill:#f28f8f"></path><path d="M247.86,195l-2.47-1.56a31.28,31.28,0,0,0-7.74,3.26C222.9,205.16,210.74,225,209,242.45a36,36,0,0,0-.24,4.24,31.54,31.54,0,0,0,.81,7.36c3.66,2.3,8,5,8.33,5.14,1.41.85,2.71,1.66,3.93,2.44.22-3.49.41-7.16.54-11C223.84,207.34,247.86,195,247.86,195Z" style="fill:#f28f8f"></path><path d="M322.05,255.61c-3.47-3.23-9.21-8.26-6.59-8.45-5.87.29-12.38,7.31-28.61,8.62s-31.29-5.93-31.29-5.93,14.55,8.4,16.62,21.6c1.24,7.85-1.16,15.72,6.94,16,8.39.29,16.09-3.9,25.82-18.12,7.89-11.53,18.43-11.62,24.59-5.05-.3-.41-.76-.92-1.18-1.46A65.58,65.58,0,0,0,322.05,255.61Z" style="fill:#f28f8f;opacity:0.5"></path><path d="M326.21,273.85c-4.21,7.88-22.77,27.64-41.06,31.48a40.49,40.49,0,0,0,26-9.6C323.65,285.34,326.21,273.85,326.21,273.85Z" style="fill:#f28f8f"></path></g></svg>